<svg width="320" height="488" viewBox="0 0 320 488" fill="none" xmlns="http://www.w3.org/2000/svg">
<path d="M206.018 454.035L206.018 399.989C206.223 395.676 207.691 391.605 209.841 387.821C213.63 381.202 219.536 375.237 226.227 369.576C236.297 361.125 248.32 353.423 257.981 346.888C262.805 343.633 267.041 340.665 270.031 338.187C271.523 336.959 272.698 335.846 273.438 334.993C273.81 334.571 274.07 334.212 274.213 333.976L274.353 333.724L274.36 333.724C277.6 322.516 278.655 309.819 286.025 287.061L286.025 287.064C288.51 279.393 290.343 273.415 293.787 266.389C297.225 259.374 302.154 251.526 310.747 239.783L314.877 242.804L309.76 242.954C309.712 241.456 309.337 240.234 308.678 239.092C307.695 237.396 305.957 235.844 303.51 234.7C301.076 233.559 297.986 232.878 294.685 232.882C291.248 232.88 287.598 233.61 284.188 235.161C280.778 236.715 277.606 239.068 274.981 242.388C271.622 246.641 269.461 250.329 267.946 253.791C265.679 258.973 264.812 263.771 263.952 269.506C263.091 275.213 262.255 281.783 259.859 289.683L259.859 289.687C258.497 294.172 256.899 297.815 255.062 300.798C252.328 305.266 248.935 308.253 245.412 309.899C241.861 311.561 238.414 311.877 235.683 311.876C234.249 311.876 232.986 311.79 231.962 311.742C229.197 311.608 227.046 309.3 227.08 306.52L227.251 299.653L232.372 299.762L227.251 299.762C227.251 275.668 226.671 261.086 225.886 249.962C225.066 238.844 224.042 231.076 223.052 220.546C223.018 220.177 223.018 219.738 223.086 219.371C223.086 219.37 228.343 181.293 233.839 141.671C236.605 121.857 239.404 101.66 241.657 85.6396C243.91 69.6022 245.576 57.8131 246.074 54.6193C246.576 51.3811 246.815 48.3715 246.815 45.6281C246.825 39.452 245.582 34.6852 243.773 31.662C242.851 30.1435 241.828 29.0414 240.735 28.2532C239.609 27.4649 238.379 26.9599 236.877 26.7211C236.024 26.588 235.205 26.5231 234.454 26.5231C232.747 26.5266 231.347 26.8337 230.05 27.4479C228.138 28.3726 226.227 30.0718 224.383 33.484C222.574 36.8758 220.936 41.9327 219.877 48.8629C218.614 57.0624 214.006 86.2436 212.743 93.846L212.777 93.7982C204.686 145.653 197.859 174.248 192.909 190.103C190.451 198.033 188.471 202.782 186.969 205.709C185.502 208.631 184.546 209.76 183.863 210.392C182.907 211.245 181.678 211.723 180.415 211.725L171.915 211.729C169.15 211.729 166.863 209.528 166.794 206.765C166.794 206.757 166.692 204.23 166.59 199.775C166.112 184.189 164.917 145.097 163.79 108.945C163.244 90.8705 162.698 73.5263 162.288 60.2255C161.844 46.9452 161.537 37.6163 161.469 35.818C161.025 26.3457 160.035 19.1426 158.158 15.2697C157.236 13.3145 156.28 12.2363 155.119 11.4958C153.925 10.769 152.32 10.2469 149.657 10.2367C147.165 10.2469 145.527 10.752 144.23 11.5265C143.24 12.1237 142.42 12.9187 141.635 14.0925C140.44 15.843 139.416 18.5045 138.734 22.0463C138.051 25.5814 137.744 29.9524 137.744 34.9957C137.744 35.8385 137.744 36.7052 137.778 37.5958L137.778 37.5856C137.949 47.7266 138.836 88.9393 139.655 127.989C140.065 147.512 140.475 166.497 140.748 180.79C140.919 187.937 141.021 193.909 141.123 198.193C141.157 200.334 141.192 202.053 141.226 203.286C141.226 204.539 141.26 205.224 141.26 205.54C141.26 207.187 140.509 208.679 139.724 209.537C138.529 210.858 137.368 211.322 136.344 211.683C135.286 212.016 134.262 212.159 133.204 212.163C131.941 212.147 130.575 211.982 129.039 211.209C128.288 210.816 127.469 210.232 126.752 209.364C126.069 208.507 125.523 207.348 125.386 206.184L130.438 205.427L125.386 206.283C125.216 205.242 124.328 200.288 123.099 193.369C121.836 186.437 120.266 177.482 118.661 168.271L118.593 167.879C117.842 160.107 116.477 152.087 115.043 144.719C113.575 137.341 112.107 130.64 111.185 125.317C107.703 105.359 104.904 88.9188 102.787 76.3857C100.671 63.8629 99.2031 55.2062 98.418 50.9682L103.436 50.0128L98.452 51.1456C97.462 46.72 95.8237 42.1238 93.6048 39.0801C92.4782 37.5446 91.2834 36.4083 89.952 35.6475C88.6207 34.8967 87.1527 34.4463 85.1045 34.4395C84.4901 34.4395 83.8413 34.4838 83.0903 34.5896C81.0421 34.8831 79.4719 35.371 78.3795 35.9272C76.7068 36.7905 75.8875 37.6572 75.2048 39.0289C74.5221 40.3972 74.1124 42.4616 74.1124 45.263C74.1124 47.887 74.4881 51.1081 75.1708 54.7831L75.2048 54.9776C75.99 60.3108 78.3113 72.0215 81.2471 86.8817C84.1488 101.769 87.6648 119.915 90.9078 138.529L90.9762 138.962C92.2734 154.009 94.0825 162.355 95.96 174.181L95.96 174.184C96.6086 178.36 97.5644 182.685 98.452 186.713C99.3737 190.753 100.193 194.453 100.603 197.669L95.5163 198.296L100.364 196.628C100.398 196.724 100.876 198.175 101.388 200.225C101.9 202.292 102.446 204.896 102.48 207.674C102.446 209.072 102.344 210.546 101.729 212.195C101.422 213.015 100.944 213.889 100.227 214.709C99.5444 215.528 98.5546 216.265 97.4622 216.711L96.9501 216.898C96.3357 217.075 95.7212 217.149 95.175 217.149C93.2291 217.114 92.0001 216.426 91.0102 215.809C89.2009 214.592 87.9037 213.12 86.4017 211.304C83.8755 208.136 81.1447 203.887 78.2772 199.016C69.6405 184.456 59.8432 164.379 56.0881 156.846L56.0881 156.843C52.9134 150.536 46.7346 137.812 40.9655 126.006C38.0638 120.103 35.2986 114.435 33.0796 109.935C31.9531 107.682 30.9631 105.724 30.178 104.178C29.427 102.643 28.8126 101.489 28.5395 100.988L28.5395 100.991C27.4812 99.0462 25.8769 96.3506 23.9993 94.3715C23.0776 93.3853 22.1219 92.5971 21.2344 92.1092C20.3127 91.6212 19.5273 91.4028 18.6398 91.3994C17.718 91.4028 16.5574 91.6383 14.8847 92.621L14.7483 92.6961C12.7684 93.7948 11.7441 94.8765 11.1296 95.8933C10.5152 96.917 10.2422 97.9987 10.2422 99.4557C10.2081 102.158 11.5051 106.069 13.6899 110.051L13.6899 110.054C14.4409 111.453 15.4311 113.633 16.7966 116.66C21.5075 127.173 30.0074 147.299 38.0978 166.132C42.126 175.543 46.0519 184.622 49.329 191.967C50.9676 195.639 52.4696 198.878 53.6985 201.494C54.9274 204.098 55.9517 206.115 56.5662 207.168C59.8774 212.944 62.8132 217.348 64.9297 220.285C65.9538 221.752 66.8071 222.853 67.3533 223.575C67.6264 223.935 67.8312 224.202 67.9677 224.372L68.1384 224.555L68.1727 224.592C69.0603 225.655 69.4697 227.049 69.3332 228.427C69.3332 228.428 69.2651 228.906 69.1968 229.851C68.5482 236.467 65.8855 265.342 65.8855 298.932C65.8855 307.271 66.056 315.9 66.4316 324.545L66.4659 324.59C67.4559 351.965 71.3472 370.262 74.8975 381.59C76.6726 387.255 78.3795 391.179 79.5743 393.632C80.1888 394.857 80.6669 395.717 80.9741 396.242L81.3155 396.782L81.3495 396.87L80.018 397.782L81.3495 396.844L81.3495 396.87L80.018 397.782L81.3495 396.844C81.964 397.716 82.2713 398.734 82.2713 399.801L82.2713 482.882C82.2713 485.707 79.9841 488 77.1507 488C74.3515 488 72.0302 485.707 72.0302 482.882L72.0302 399.801L77.1507 399.801L72.9859 402.76C72.3373 401.866 58.273 381.303 56.2248 324.965L56.2248 325.01C55.8151 316.184 55.6444 307.404 55.6444 298.932C55.6444 259.944 59.1263 227.449 59.1604 227.337L64.247 227.882L60.3212 231.172C60.1506 230.981 54.6886 224.446 47.6905 212.272C46.6664 210.514 45.4374 207.982 43.8671 204.676C38.5076 193.171 29.7345 172.647 21.7464 153.947C17.7524 144.603 13.9631 135.727 10.9249 128.712C9.38876 125.208 8.05722 122.167 6.96484 119.779C5.90658 117.404 5.05325 115.63 4.64358 114.889L4.67792 114.892C2.15179 110.143 0.0352448 105.018 0.00109518 99.4557C-0.0330542 96.511 0.68362 93.4126 2.35635 90.6351C3.99493 87.8542 6.55548 85.5134 9.79849 83.7356L12.2561 88.2158L9.6618 83.8107C12.5976 82.0602 15.704 81.1526 18.6398 81.1628C21.439 81.156 23.9993 81.9613 26.1499 83.1316C29.3246 84.8992 31.6801 87.3833 33.4893 89.7479C35.2986 92.116 36.63 94.4465 37.4834 96.0161L37.4834 96.023C37.9272 96.801 38.5418 97.9679 39.327 99.5614C44.9254 110.603 59.809 141.381 65.2367 152.268L65.2367 152.266C68.3432 158.442 75.3413 172.743 82.3052 185.433C85.7872 191.767 89.3035 197.704 92.171 201.873C93.6047 203.95 94.9018 205.591 95.7894 206.5C96.2331 206.953 96.5746 207.213 96.6088 207.231L96.3014 207.698L96.5404 207.206L96.6088 207.231L96.3014 207.698L96.5404 207.206L95.175 209.837L95.175 206.913C96.0284 206.924 96.438 207.153 96.5404 207.206L95.175 209.837L95.175 206.913L95.175 210.838L94.0825 207.071C94.458 206.957 94.8336 206.912 95.175 206.913L95.175 210.838L94.0825 207.071L95.5163 211.985L93.5364 207.258L94.5946 209.824L92.5123 208.001C92.7513 207.727 93.1268 207.42 93.5364 207.258L94.5946 209.824L92.5123 208.001L94.0825 209.363L92.205 208.479L92.5123 208.001L94.0825 209.363L92.205 208.479L92.8537 208.787L92.1366 208.584L92.205 208.479L92.8537 208.787L92.1366 208.584C92.1708 208.57 92.2393 208.203 92.2393 207.674C92.2393 206.396 91.8635 204.311 91.4539 202.702C91.2491 201.891 91.0444 201.18 90.9078 200.687L90.7371 200.122L90.6688 199.987L90.6688 199.963C90.5323 199.613 90.4639 199.289 90.4298 198.921C90.1225 196.514 89.3718 192.939 88.4842 188.922C87.5625 184.891 86.5725 180.375 85.8556 175.79L85.8556 175.792C84.0122 164.3 82.1346 155.405 80.7691 139.849L85.8556 139.406L80.8374 140.283C77.5944 121.799 74.1125 103.721 71.1767 88.8505C68.2751 73.9562 65.9536 62.3752 65.066 56.4789L70.1526 55.7283L65.1004 56.6735C64.3494 52.6163 63.8713 48.8356 63.8713 45.263C63.8713 42.7346 64.1102 40.3017 64.7247 37.9677C65.6464 34.4804 67.5924 31.1672 70.5623 28.8094C73.5664 26.4379 77.3214 25.073 81.6568 24.4554C82.8175 24.2848 83.978 24.2029 85.1045 24.2029C88.7913 24.1892 92.2049 25.1344 95.0383 26.7655C99.3054 29.2222 102.207 32.9859 104.255 36.8963C106.303 40.8306 107.567 45.0242 108.42 48.8868L108.454 49.0608C109.308 53.5308 110.776 62.1432 112.892 74.6796C115.009 87.2092 117.774 103.629 121.256 123.556C122.109 128.507 123.611 135.246 125.079 142.76C126.547 150.282 127.981 158.604 128.8 166.906L123.679 167.393L128.732 166.514C130.336 175.702 131.94 184.643 133.169 191.569C134.398 198.508 135.286 203.373 135.491 204.571L135.491 204.67L131.975 205.2L134.74 202.96C135.115 203.406 135.422 204.078 135.491 204.67L131.975 205.2L134.74 202.96L132.487 204.77L133.442 201.985C133.647 202.065 134.194 202.269 134.74 202.96L132.487 204.77L133.442 201.985L133.033 203.168L133.204 201.929L133.442 201.985L133.033 203.168L133.204 201.929L133.169 202.278L133.204 201.927L133.204 201.929L133.169 202.278L133.204 201.927L133.238 201.922L133.579 203.59L132.623 202.236C133.135 201.905 133.238 201.937 133.238 201.922L133.579 203.59L132.623 202.236L134.74 205.223L131.668 203.258C132.043 202.703 132.384 202.41 132.623 202.236L134.74 205.223L131.668 203.258L135.252 205.54L131.019 205.54C131.019 204.665 131.326 203.798 131.668 203.258L135.252 205.54L131.019 205.54C131.019 205.479 130.985 204.682 130.985 203.475C130.643 185.059 127.912 56.8304 127.537 37.7869L127.537 37.7767C127.503 36.8417 127.503 35.917 127.503 34.9957C127.537 25.2743 128.493 17.1703 131.77 10.7042C133.408 7.48988 135.764 4.68166 138.904 2.79131C142.011 0.887284 145.698 -0.00672915 149.657 0.000106445C153.686 -0.00672985 157.441 0.863387 160.547 2.82542C162.903 4.28584 164.78 6.30244 166.18 8.57496C168.262 12.0008 169.423 15.9556 170.242 20.388C171.027 24.8239 171.403 29.7886 171.676 35.3198L171.676 35.3233C171.812 37.6504 172.188 49.3679 172.7 65.842C174.27 115.189 177.035 206.455 177.035 206.456L171.915 206.61L171.915 201.492L180.415 201.488L180.415 206.606L176.967 202.821L179.357 205.448L176.66 203.129L176.967 202.821L179.357 205.448L176.66 203.129L177.343 203.717L176.66 203.146L176.66 203.129L177.343 203.717L176.66 203.146L176.762 202.962C177.513 201.945 180.62 196.491 185.16 180.219C189.7 163.939 195.708 136.819 202.638 92.2252L202.672 92.1774C203.901 84.6944 208.475 55.4485 209.739 47.2899C211.377 37.043 214.04 29.5703 218.239 24.2472C220.321 21.6028 222.847 19.5452 225.647 18.211C228.446 16.8735 231.45 16.2797 234.454 16.2865C235.785 16.2865 237.117 16.3991 238.448 16.6073C241.452 17.0646 244.251 18.1974 246.644 19.9001C250.256 22.4592 252.884 26.2024 254.564 30.5701C256.25 34.9547 257.053 40.0151 257.056 45.6281C257.056 48.9584 256.769 52.4866 256.192 56.1923L256.192 56.1957C255.724 59.178 254.042 71.0627 251.799 87.0591C248.433 111.078 243.807 144.507 239.984 171.933C238.072 185.644 236.4 197.853 235.171 206.636C233.976 215.418 233.225 220.758 233.225 220.772L228.173 220.073L233.259 219.598C234.215 229.885 235.273 237.791 236.092 249.23C236.912 260.66 237.492 275.516 237.492 299.762L237.492 299.871L237.322 306.74L232.201 306.631L232.474 301.518C233.601 301.574 234.659 301.64 235.683 301.639C237.014 301.64 238.209 301.535 239.37 301.24C241.077 300.775 242.613 300.015 244.456 297.979C246.293 295.938 248.317 292.462 250.061 286.712L250.058 286.716C252.905 277.358 253.284 270.072 254.813 262.085C255.581 258.112 256.67 254.003 258.561 249.69C260.449 245.372 263.122 240.88 266.942 236.046C270.608 231.397 275.148 228.023 279.948 225.843C284.755 223.66 289.821 222.646 294.685 222.645C300.915 222.657 306.865 224.276 311.617 227.601C313.983 229.265 316.041 231.385 317.53 233.944C319.022 236.498 319.909 239.487 319.998 242.655C320.032 243.793 319.684 244.906 319.011 245.826C310.59 257.338 306.029 264.674 302.984 270.893C299.939 277.103 298.29 282.416 295.767 290.215L295.767 290.216C288.643 312.181 287.793 323.897 284.205 336.539C283.727 338.169 282.939 339.447 282.044 340.634C280.351 342.837 278.163 344.799 275.528 346.912C270.933 350.569 264.955 354.546 258.49 358.879C248.809 365.355 238.038 372.613 229.845 380.011C225.749 383.698 222.301 387.418 219.946 390.933C217.59 394.455 216.361 397.682 216.259 400.49L211.138 400.238L216.259 400.238L216.259 454.035C216.259 456.86 213.972 459.154 211.138 459.154C208.305 459.154 206.018 456.86 206.018 454.035Z" fill="#99947F"/>
<path d="M212.06 391.496C199.703 402.968 182.02 410.355 162.903 411.451C161.742 411.519 160.718 410.621 160.65 409.445C160.581 408.266 161.469 407.26 162.664 407.192C180.825 406.166 197.62 399.088 209.159 388.37C210.012 387.569 211.377 387.616 212.163 388.48C212.982 389.343 212.914 390.693 212.06 391.496Z" fill="#99947F"/>
<path d="M80.6326 396.898C81.3153 398.021 83.4318 399.521 86.4359 400.798C90.942 402.754 97.3937 404.381 104.221 405.483C111.014 406.592 118.217 407.192 124.294 407.189C125.454 407.189 126.41 408.144 126.41 409.322C126.41 410.502 125.454 411.455 124.294 411.455C115.828 411.455 105.518 410.359 96.6426 408.376C92.2048 407.38 88.1086 406.169 84.729 404.716C81.3836 403.237 78.6866 401.61 77.0822 399.283C76.4336 398.307 76.6726 396.979 77.6626 396.321C78.6184 395.663 79.9499 395.921 80.6326 396.898Z" fill="#99947F"/>
<path d="M233.361 311.602C228.889 311.384 224.929 310.912 221.618 310.125C218.273 309.328 215.576 308.253 213.562 306.576C212.674 305.813 212.572 304.469 213.323 303.57C214.074 302.672 215.439 302.56 216.327 303.322C217.488 304.31 219.638 305.284 222.608 305.975C225.544 306.677 229.299 307.134 233.566 307.342C234.761 307.4 235.648 308.399 235.614 309.576C235.546 310.753 234.556 311.66 233.361 311.602Z" fill="#99947F"/>
<circle cx="23" cy="108" r="10" fill="#D9D9D9"/>
<circle cx="87" cy="56" r="10" fill="#FFAC60"/>
<circle cx="150" cy="29" r="10" fill="#F0DB4F"/>
<path d="M242.933 44.5C242.933 50.0228 238.456 54.5 232.933 54.5C227.41 54.5 222.933 50.0228 222.933 44.5C222.933 38.9772 227.41 34.5 232.933 34.5C238.456 34.5 242.933 38.9772 242.933 44.5Z" fill="#1AC69C"/>
<path d="M302 246C302 251.523 297.523 256 292 256C286.477 256 282 251.523 282 246C282 240.477 286.477 236 292 236C297.523 236 302 240.477 302 246Z" fill="#1C1C1C"/>
<circle cx="23" cy="108" r="10" fill="#FF0000"/>
</svg>
