<svg width="320" height="488" viewBox="0 0 320 488" fill="none" xmlns="http://www.w3.org/2000/svg">
<g clip-path="url(#clip0_58_191)">
<path d="M113.982 454.035V399.989C113.777 395.676 112.309 391.605 110.159 387.821C106.37 381.202 100.464 375.237 93.773 369.576C83.7026 361.125 71.6797 353.423 62.0189 346.888C57.1954 343.633 52.959 340.665 49.9686 338.187C48.4768 336.959 47.3024 335.846 46.5616 334.993C46.1895 334.571 45.9302 334.212 45.7869 333.976L45.6468 333.724H45.6398C42.4002 322.516 41.3454 309.819 33.9753 287.061V287.064C31.4901 279.393 29.6572 273.415 26.2128 266.389C22.7752 259.374 17.8456 251.526 9.25328 239.783L5.12284 242.804L10.2401 242.954C10.2878 241.456 10.6633 240.234 11.3222 239.092C12.3053 237.396 14.0428 235.843 16.4904 234.7C18.9244 233.559 22.0136 232.878 25.3147 232.882C28.7523 232.88 32.4015 233.61 35.8118 235.161C39.2221 236.715 42.3936 239.068 45.0188 242.388C48.3779 246.641 50.5385 250.329 52.0542 253.791C54.3209 258.973 55.188 263.771 56.0483 269.506C56.9085 275.213 57.745 281.783 60.1414 289.683V289.687C61.5035 294.172 63.101 297.815 64.9376 300.798C67.6719 305.266 71.0653 308.253 74.5883 309.899C78.1385 311.561 81.5863 311.877 84.3173 311.876C85.7511 311.876 87.0139 311.79 88.038 311.742C90.8031 311.608 92.9537 309.3 92.9196 306.52L92.7489 299.653L87.6283 299.762H92.7489C92.7489 275.668 93.3292 261.086 94.1144 249.961C94.9336 238.844 95.958 231.076 96.948 220.546C96.9821 220.177 96.9819 219.738 96.9137 219.371C96.9137 219.37 91.6566 181.293 86.1605 141.671C83.3954 121.857 80.5964 101.66 78.3433 85.6396C76.0903 69.6022 74.4243 57.8131 73.9259 54.6192C73.424 51.381 73.1851 48.3715 73.1851 45.6281C73.1749 39.452 74.4175 34.6851 76.2268 31.6619C77.1485 30.1435 78.1724 29.0413 79.2648 28.2531C80.3913 27.4649 81.6205 26.9599 83.1225 26.721C83.9759 26.588 84.7951 26.5231 85.5461 26.5231C87.253 26.5265 88.6527 26.8336 89.9499 27.4478C91.8616 28.3725 93.7731 30.0718 95.6165 33.484C97.4258 36.8757 99.0644 41.9327 100.123 48.8628C101.386 57.0624 105.994 86.2435 107.257 93.8459L107.223 93.7982C115.314 145.653 122.141 174.248 127.091 190.103C129.549 198.033 131.528 202.782 133.031 205.709C134.498 208.631 135.454 209.76 136.137 210.392C137.093 211.245 138.322 211.723 139.585 211.725L148.085 211.729C150.85 211.729 153.137 209.528 153.206 206.765C153.206 206.757 153.308 204.23 153.41 199.775C153.888 184.189 155.083 145.097 156.21 108.945C156.756 90.8705 157.302 73.5262 157.712 60.2255C158.156 46.9452 158.463 37.6162 158.531 35.818C158.975 26.3457 159.965 19.1425 161.842 15.2697C162.764 13.3145 163.72 12.2362 164.881 11.4958C166.075 10.769 167.68 10.2469 170.343 10.2367C172.835 10.2469 174.473 10.7519 175.77 11.5265C176.76 12.1236 177.58 12.9187 178.365 14.0925C179.559 15.8429 180.584 18.5044 181.266 22.0463C181.949 25.5813 182.256 29.9524 182.256 34.9956C182.256 35.8385 182.256 36.7051 182.222 37.5957V37.5855C182.051 47.7266 181.164 88.9392 180.345 127.988C179.935 147.512 179.525 166.497 179.252 180.79C179.081 187.936 178.979 193.909 178.877 198.193C178.843 200.334 178.808 202.053 178.774 203.286C178.774 204.539 178.74 205.224 178.74 205.54C178.74 207.187 179.491 208.679 180.276 209.537C181.471 210.858 182.632 211.322 183.656 211.683C184.714 212.016 185.738 212.159 186.796 212.163C188.059 212.147 189.425 211.982 190.961 211.209C191.712 210.816 192.531 210.232 193.248 209.364C193.931 208.507 194.477 207.347 194.614 206.184L189.562 205.427L194.614 206.283C194.784 205.241 195.672 200.288 196.901 193.369C198.164 186.437 199.734 177.481 201.339 168.271L201.407 167.879C202.158 160.107 203.523 152.087 204.957 144.719C206.425 137.341 207.893 130.64 208.815 125.317C212.297 105.359 215.096 88.9187 217.213 76.3857C219.329 63.8629 220.797 55.2061 221.582 50.9681L216.564 50.0128L221.548 51.1456C222.538 46.72 224.176 42.1237 226.395 39.08C227.522 37.5445 228.717 36.4083 230.048 35.6474C231.379 34.8967 232.847 34.4463 234.895 34.4394C235.51 34.4394 236.159 34.4838 236.91 34.5896C238.958 34.883 240.528 35.371 241.62 35.9272C243.293 36.7904 244.112 37.6571 244.795 39.0288C245.478 40.3971 245.888 42.4615 245.888 45.2629C245.888 47.8869 245.512 51.1081 244.829 54.783L244.795 54.9775C244.01 60.3108 241.689 72.0215 238.753 86.8816C235.851 101.769 232.335 119.915 229.092 138.529L229.024 138.962C227.727 154.009 225.917 162.354 224.04 174.181V174.184C223.391 178.36 222.436 182.685 221.548 186.713C220.626 190.753 219.807 194.453 219.397 197.669L224.484 198.296L219.636 196.628C219.602 196.724 219.124 198.174 218.612 200.225C218.1 202.292 217.554 204.896 217.52 207.674C217.554 209.072 217.656 210.546 218.271 212.195C218.578 213.015 219.056 213.889 219.773 214.709C220.456 215.528 221.445 216.265 222.538 216.711L223.05 216.898C223.664 217.075 224.279 217.149 224.825 217.149C226.771 217.114 228 216.426 228.99 215.809C230.799 214.592 232.096 213.12 233.598 211.304C236.124 208.136 238.855 203.887 241.723 199.016C250.359 184.456 260.157 164.379 263.912 156.845V156.843C267.087 150.536 273.265 137.812 279.034 126.006C281.936 120.103 284.701 114.435 286.92 109.934C288.047 107.682 289.037 105.724 289.822 104.178C290.573 102.643 291.187 101.489 291.46 100.988V100.991C292.519 99.0462 294.123 96.3505 296.001 94.3714C296.922 93.3853 297.878 92.5971 298.766 92.1091C299.687 91.6212 300.473 91.4028 301.36 91.3994C302.282 91.4028 303.443 91.6382 305.115 92.621L305.252 92.696C307.232 93.7947 308.256 94.8764 308.87 95.8933C309.485 96.9169 309.758 97.9986 309.758 99.4556C309.792 102.158 308.495 106.068 306.31 110.05V110.054C305.559 111.453 304.569 113.633 303.203 116.66C298.492 127.173 289.993 147.299 281.902 166.132C277.874 175.543 273.948 184.622 270.671 191.967C269.032 195.639 267.53 198.878 266.301 201.494C265.073 204.098 264.048 206.115 263.434 207.168C260.123 212.944 257.187 217.348 255.07 220.285C254.046 221.752 253.193 222.853 252.647 223.575C252.374 223.935 252.169 224.202 252.032 224.372L251.862 224.555L251.827 224.592C250.94 225.655 250.53 227.049 250.667 228.427C250.667 228.428 250.735 228.906 250.803 229.851C251.452 236.467 254.114 265.342 254.114 298.932C254.114 307.271 253.944 315.9 253.568 324.545L253.534 324.59C252.544 351.965 248.653 370.262 245.103 381.59C243.327 387.255 241.62 391.179 240.426 393.632C239.811 394.857 239.333 395.717 239.026 396.242L238.684 396.782L238.65 396.87L239.982 397.782L238.65 396.844V396.87L239.982 397.782L238.65 396.844C238.036 397.716 237.729 398.734 237.729 399.801V482.882C237.729 485.707 240.016 488 242.849 488C245.648 488 247.97 485.707 247.97 482.882V399.801H242.849L247.014 402.76C247.663 401.866 261.727 381.303 263.775 324.964V325.01C264.185 316.184 264.356 307.404 264.356 298.932C264.356 259.944 260.874 227.449 260.84 227.337L255.753 227.882L259.679 231.171C259.849 230.981 265.311 224.446 272.309 212.272C273.334 210.514 274.563 207.982 276.133 204.676C281.492 193.171 290.265 172.647 298.254 153.946C302.248 144.602 306.037 135.727 309.075 128.712C310.611 125.208 311.943 122.167 313.035 119.779C314.093 117.404 314.947 115.629 315.356 114.889L315.322 114.892C317.848 110.143 319.965 105.018 319.999 99.4556C320.033 96.5109 319.316 93.4126 317.644 90.635C316.005 87.8541 313.444 85.5133 310.201 83.7356L307.744 88.2158L310.338 83.8106C307.402 82.0602 304.296 81.1525 301.36 81.1627C298.561 81.1559 296.001 81.9612 293.85 83.1316C290.675 84.8991 288.32 87.3832 286.511 89.7479C284.701 92.1159 283.37 94.4465 282.517 96.0161V96.0229C282.073 96.8009 281.458 97.9679 280.673 99.5614C275.075 110.603 260.191 141.381 254.763 152.268V152.266C251.657 158.442 244.659 172.743 237.695 185.433C234.213 191.767 230.696 197.704 227.829 201.873C226.395 203.95 225.098 205.591 224.211 206.5C223.767 206.953 223.425 207.213 223.391 207.231L223.699 207.698L223.46 207.206L223.391 207.231L223.699 207.698L223.46 207.206L224.825 209.837V206.913C223.972 206.924 223.562 207.153 223.46 207.206L224.825 209.837V206.913V210.838L225.917 207.071C225.542 206.957 225.166 206.912 224.825 206.913V210.838L225.917 207.071L224.484 211.985L226.464 207.258L225.405 209.824L227.488 208.001C227.249 207.727 226.873 207.419 226.464 207.258L225.405 209.824L227.488 208.001L225.917 209.363L227.795 208.479L227.488 208.001L225.917 209.363L227.795 208.479L227.146 208.787L227.863 208.584L227.795 208.479L227.146 208.787L227.863 208.584C227.829 208.57 227.761 208.203 227.761 207.674C227.761 206.396 228.136 204.311 228.546 202.702C228.751 201.891 228.956 201.18 229.092 200.687L229.263 200.122L229.331 199.987V199.963C229.468 199.613 229.536 199.289 229.57 198.921C229.877 196.514 230.628 192.939 231.516 188.922C232.437 184.891 233.427 180.375 234.144 175.79V175.792C235.988 164.3 237.865 155.405 239.231 139.849L234.144 139.406L239.163 140.283C242.406 121.799 245.887 103.721 248.823 88.8505C251.725 73.9562 254.046 62.3752 254.934 56.4789L249.847 55.7282L254.9 56.6734C255.651 52.6163 256.129 48.8355 256.129 45.2629C256.129 42.7345 255.89 40.3016 255.275 37.9677C254.354 34.4804 252.408 31.1671 249.438 28.8093C246.434 26.4378 242.679 25.0729 238.343 24.4553C237.182 24.2847 236.022 24.2028 234.895 24.2028C231.209 24.1892 227.795 25.1344 224.962 26.7654C220.695 29.2222 217.793 32.9858 215.745 36.8962C213.696 40.8305 212.433 45.0241 211.58 48.8867L211.546 49.0607C210.692 53.5307 209.224 62.1431 207.108 74.6796C204.991 87.2092 202.226 103.629 198.744 123.556C197.891 128.507 196.389 135.246 194.921 142.76C193.453 150.282 192.019 158.603 191.2 166.906L196.321 167.393L191.268 166.514C189.664 175.702 188.06 184.643 186.831 191.569C185.602 198.508 184.714 203.373 184.509 204.571V204.67L188.025 205.2L185.26 202.96C184.885 203.406 184.578 204.078 184.509 204.67L188.025 205.2L185.26 202.96L187.513 204.77L186.558 201.985C186.353 202.065 185.806 202.269 185.26 202.96L187.513 204.77L186.558 201.985L186.967 203.168L186.796 201.929L186.558 201.985L186.967 203.168L186.796 201.929L186.831 202.278L186.796 201.927V201.929L186.831 202.278L186.796 201.927L186.762 201.922L186.421 203.59L187.377 202.236C186.865 201.905 186.762 201.937 186.762 201.922L186.421 203.59L187.377 202.236L185.26 205.223L188.332 203.258C187.957 202.702 187.616 202.41 187.377 202.236L185.26 205.223L188.332 203.258L184.748 205.54H188.981C188.981 204.664 188.674 203.798 188.332 203.258L184.748 205.54H188.981C188.981 205.479 189.015 204.682 189.015 203.475C189.357 185.059 192.088 56.8303 192.463 37.7868V37.7766C192.497 36.8416 192.497 35.9169 192.497 34.9956C192.463 25.2743 191.507 17.1703 188.23 10.7041C186.592 7.48983 184.236 4.6816 181.096 2.79124C177.989 0.88723 174.302 -0.00678624 170.343 3.81738e-05C166.314 -0.00678624 162.559 0.863336 159.453 2.82535C157.097 4.28578 155.22 6.30238 153.82 8.57491C151.738 12.0008 150.577 15.9555 149.758 20.388C148.972 24.8238 148.597 29.7886 148.324 35.3198V35.3232C148.188 37.6503 147.812 49.3679 147.3 65.842C145.73 115.189 142.965 206.455 142.965 206.456L148.085 206.61V201.492L139.585 201.488V206.606L143.033 202.821L140.643 205.448L143.34 203.129L143.033 202.821L140.643 205.448L143.34 203.129L142.657 203.717L143.34 203.146V203.129L142.657 203.717L143.34 203.146L143.238 202.962C142.487 201.945 139.38 196.491 134.84 180.219C130.3 163.939 124.292 136.819 117.362 92.2251L117.328 92.1774C116.099 84.6944 111.524 55.4484 110.261 47.2898C108.623 37.043 105.96 29.5702 101.761 24.2472C99.6788 21.6027 97.1526 19.5451 94.3534 18.211C91.5541 16.8734 88.5502 16.2797 85.5461 16.2865C84.2148 16.2865 82.8834 16.3991 81.552 16.6073C78.548 17.0645 75.7488 18.1974 73.3558 19.9C69.7441 22.4592 67.1155 26.2024 65.436 30.57C63.7496 34.9547 62.9474 40.015 62.944 45.6281C62.944 48.9584 63.2309 52.4866 63.8078 56.1923V56.1957C64.2755 59.1779 65.9585 71.0626 68.2013 87.059C71.5672 111.078 76.1925 144.507 80.0158 171.933C81.9275 185.644 83.6004 197.853 84.8294 206.636C86.0242 215.418 86.7749 220.758 86.7749 220.772L91.8274 220.073L86.7409 219.598C85.7851 229.885 84.7269 237.791 83.9076 249.23C83.0883 260.66 82.5078 275.516 82.5078 299.762V299.871L82.6785 306.74L87.799 306.631L87.526 301.518C86.3995 301.573 85.3414 301.64 84.3173 301.639C82.986 301.64 81.7909 301.535 80.6302 301.24C78.9234 300.775 77.3874 300.015 75.544 297.979C73.7075 295.938 71.6832 292.462 69.9388 286.712L69.9421 286.716C67.0951 277.358 66.7163 270.072 65.1869 262.085C64.4188 258.112 63.3297 254.003 61.4385 249.69C59.5508 245.372 56.8779 240.88 53.058 236.046C49.3917 231.397 44.8516 228.023 40.0519 225.843C35.2454 223.66 30.1792 222.646 25.3147 222.645C19.0847 222.657 13.1347 224.276 8.38285 227.601C6.01716 229.265 3.9586 231.385 2.47022 233.944C0.978436 236.498 0.091048 239.487 0.00229185 242.655C-0.0318451 243.793 0.316232 244.906 0.988731 245.826C9.41032 257.338 13.9711 264.674 17.0161 270.893C20.0611 277.103 21.7098 282.416 24.2325 290.215V290.216C31.3569 312.181 32.207 323.897 35.7948 336.539C36.2727 338.169 37.0613 339.447 37.9557 340.634C39.6489 342.837 41.837 344.799 44.4724 346.912C49.0672 350.569 55.0447 354.546 61.5102 358.879C71.1915 365.355 81.9617 372.613 90.1546 380.011C94.251 383.698 97.6989 387.418 100.054 390.933C102.41 394.455 103.639 397.682 103.741 400.49L108.862 400.238H103.741V454.035C103.741 456.86 106.028 459.154 108.862 459.154C111.695 459.154 113.982 456.86 113.982 454.035" fill="#99947F"/>
<path d="M107.94 391.496C120.298 402.968 137.981 410.355 157.098 411.451C158.258 411.519 159.283 410.621 159.351 409.445C159.419 408.266 158.531 407.26 157.337 407.192C139.176 406.166 122.38 399.088 110.842 388.37C109.989 387.569 108.623 387.616 107.838 388.48C107.019 389.343 107.087 390.693 107.94 391.496" fill="#99947F"/>
<path d="M239.367 396.898C238.685 398.02 236.568 399.521 233.564 400.798C229.058 402.753 222.606 404.381 215.779 405.483C208.986 406.592 201.783 407.192 195.706 407.189C194.546 407.189 193.59 408.144 193.59 409.322C193.59 410.502 194.546 411.455 195.706 411.455C204.172 411.455 214.482 410.359 223.357 408.375C227.795 407.38 231.891 406.168 235.271 404.715C238.616 403.237 241.313 401.61 242.918 399.283C243.566 398.307 243.327 396.979 242.337 396.321C241.382 395.663 240.05 395.921 239.367 396.898" fill="#99947F"/>
<path d="M86.639 311.602C91.1109 311.384 95.0706 310.912 98.3819 310.125C101.727 309.328 104.424 308.253 106.438 306.576C107.326 305.813 107.428 304.469 106.677 303.57C105.926 302.672 104.561 302.56 103.673 303.322C102.512 304.31 100.362 305.284 97.3921 305.975C94.4563 306.677 90.7011 307.134 86.4339 307.342C85.2391 307.4 84.3516 308.399 84.3857 309.576C84.454 310.753 85.4442 311.66 86.639 311.602" fill="#99947F"/>
</g>
<circle cx="28" cy="246" r="10" fill="black"/>
<path d="M95.5 40.9329C95.5 46.4557 91.0228 50.9329 85.5 50.9329C79.9772 50.9329 75.5 46.4557 75.5 40.9329C75.5 35.41 79.9772 30.9329 85.5 30.9329C91.0228 30.9329 95.5 35.41 95.5 40.9329Z" fill="#03599C"/>
<path d="M180.5 27.9327C180.5 33.4556 176.023 37.9327 170.5 37.9327C164.977 37.9327 160.5 33.4556 160.5 27.9327C160.5 22.4099 164.977 17.9327 170.5 17.9327C176.023 17.9327 180.5 22.4099 180.5 27.9327Z" fill="#3FA4FF"/>
<path d="M244 49C244 54.5228 239.523 59 234 59C228.478 59 224 54.5228 224 49C224 43.4772 228.478 39 234 39C239.523 39 244 43.4772 244 49Z" fill="#C478FF"/>
<path d="M309 105C309 110.523 304.523 115 299 115C293.478 115 289 110.523 289 105C289 99.4772 293.478 95 299 95C304.523 95 309 99.4772 309 105Z" fill="#FF32C6"/>
<defs>
<clipPath id="clip0_58_191">
<rect width="320" height="488" fill="white"/>
</clipPath>
</defs>
</svg>
